# xmcd CD database file
#
# Track frame offsets:
#	150
#	19394
#	40159
#	54975
#	70190
#	92440
#	95792
#	111746
#	125856
#	143816
#	166154
#	186517
#
# Disc length: 2637 seconds
#
# Revision: 0
# Processed by: cddbd v1.5.2PL0 Copyright (c) Steve Scherf et al.
# Submitted via: CDex 1.50
#
DISCID=b10a4b0c
DTITLE=Duke Ellington - On the Air
DYEAR=1900
DGENRE=Jazz
TTITLE0=Harlem Speaks
TTITLE1=Caravan
TTITLE2=One Two Button Your Shoe
TTITLE3=Sophisticated Lady
TTITLE4=Rockin' in Rhythm
TTITLE5=East St. Louis Toodle-Oo
TTITLE6=Grievin'
TTITLE7=Little Posey
TTITLE8=The Gal from Joe's
TTITLE9=Tootin' Through the Roof
TTITLE10=Day In Day Out
TTITLE11=Merry Go Round
EXTD=
EXTT0=
EXTT1=
EXTT2=
EXTT3=
EXTT4=
EXTT5=
EXTT6=
EXTT7=
EXTT8=
EXTT9=
EXTT10=
EXTT11=
PLAYORDER=
